<svg width="95" height="30" viewBox="0 0 95 30" fill="none" xmlns="http://www.w3.org/2000/svg">
<path d="M5.90041 2.03638H0.0371094V7.91567H5.90041V2.03638Z" fill="white"/>
<path d="M13.2219 7.90662H4.37709C1.95745 7.90662 0 9.86941 0 12.2956V13.7859H10.7297C11.2825 13.7859 11.7357 14.2403 11.7357 14.7946V21.1646C11.7357 23.5908 13.6931 25.5536 16.1128 25.5536H17.608V12.2956C17.599 9.86941 15.6415 7.90662 13.2219 7.90662Z" fill="#26FFF5"/>
<path d="M5.8633 18.6656V13.7859H0V21.1645C0 23.5908 1.95745 25.5536 4.37709 25.5536H5.8633C9.1076 25.5536 11.7266 22.9183 11.7266 19.6743H6.86015C6.31641 19.6652 5.8633 19.2199 5.8633 18.6656Z" fill="white"/>
<path d="M27.2971 22.255V9.95117H29.2273V14.4856H33.7585C35.5528 14.4856 36.595 15.2852 36.8759 16.8936C36.9122 17.0663 36.9303 17.248 36.9394 17.4298V22.5003C36.9394 23.827 36.3503 24.7448 35.1813 25.2628C34.8188 25.4354 34.4291 25.5354 34.0213 25.5536H30.197C29.3633 25.5536 28.6745 25.2083 28.1036 24.5086C27.578 23.8816 27.288 23.0819 27.2971 22.255ZM30.5051 23.618H33.9397C34.0122 23.6271 34.0757 23.618 34.1391 23.5999C34.6013 23.4999 34.8822 23.1364 34.991 22.5094C34.991 22.4822 35 22.464 35.0091 22.4458V17.7297C35.0091 16.8664 34.5741 16.4302 33.7132 16.4302H30.2876C29.5898 16.4302 29.2364 16.8482 29.2364 17.6842V22.2005C29.2273 22.5639 29.3542 22.9274 29.5989 23.2C29.8164 23.4726 30.1517 23.618 30.5051 23.618Z" fill="#26FFF5"/>
<path d="M38.8945 22.5458V14.4856H40.8701V22.8366C40.9789 23.3273 41.4138 23.5726 42.1841 23.5726H45.2834C45.7637 23.5726 46.0991 23.4817 46.2984 23.2909C46.4978 23.1092 46.5975 22.7729 46.5975 22.3004V14.4856H48.5277V22.5458C48.5277 24.554 47.4312 25.5536 45.2381 25.5536H42.1841C39.9911 25.5536 38.8945 24.5449 38.8945 22.5458Z" fill="#26FFF5"/>
<path d="M50.4766 25.5536H52.434V14.4856H50.4766V25.5536Z" fill="#26FFF5"/>
<path d="M50.4766 12.2775H52.434V10.0693H50.4766V12.2775Z" fill="#26FFF5"/>
<path d="M69.8887 12.2775H71.8461V10.0693H69.8887V12.2775Z" fill="#26FFF5"/>
<path d="M54.3906 25.5536V9.95117H56.3209V25.5536H54.3906Z" fill="#26FFF5"/>
<path d="M58.2793 22.5003V17.4297C58.2793 16.4756 58.5693 15.7486 59.1402 15.2488C59.7111 14.7491 60.4814 14.4946 61.4511 14.4946H65.9913V9.96021H67.9216V22.264C67.9216 23.1 67.6225 23.8997 67.0878 24.5358C66.535 25.2173 65.8373 25.5626 65.0126 25.5626H61.1883C60.7896 25.5444 60.3908 25.4536 60.0283 25.2718C58.8684 24.7448 58.2793 23.8179 58.2793 22.5003ZM60.2368 22.5003C60.3546 23.2454 60.6989 23.618 61.2699 23.618H64.7226C65.0035 23.6271 65.2754 23.518 65.4838 23.3272C65.8282 23.0909 66.0004 22.7184 66.0004 22.2095V17.6751C66.0004 16.8391 65.6469 16.4211 64.9491 16.4211H61.4964C60.6446 16.4211 60.2186 16.8572 60.2186 17.7205V22.364C60.2186 22.4094 60.2186 22.4548 60.2368 22.5003Z" fill="#26FFF5"/>
<path d="M69.8887 25.5536H71.8461V14.4856H69.8887V25.5536Z" fill="#26FFF5"/>
<path d="M73.793 25.5536V17.4934C73.793 15.4852 74.8895 14.4856 77.0826 14.4856H80.1547C82.3478 14.4856 83.4443 15.4852 83.4443 17.4934V25.5536H81.514V17.2026C81.4053 16.7119 80.9703 16.4666 80.1909 16.4666H77.0735C76.5842 16.4666 76.2307 16.5574 76.0314 16.7392C75.832 16.9209 75.7323 17.2571 75.7323 17.7387V25.5536H73.793Z" fill="#26FFF5"/>
<path d="M85.3843 29.7246V27.789H91.601C92.5797 27.789 93.0691 27.3256 93.0691 26.4078V25.5536H88.4111C87.532 25.5536 86.807 25.2447 86.2361 24.6177C85.6652 24.0088 85.3661 23.2001 85.3752 22.3641V17.4662C85.3752 16.1031 85.9643 15.1763 87.1333 14.7037C87.4505 14.5674 87.7858 14.4947 88.1301 14.4766H92.2444C93.8303 14.4766 94.7366 15.249 94.954 16.7937C94.9812 16.9664 94.9994 17.1391 94.9994 17.3117V26.8531C94.9994 27.8072 94.6731 28.5342 94.0206 29.0339C93.4316 29.4974 92.6432 29.7246 91.6644 29.7246H85.3843ZM87.3236 22.3823C87.4595 23.2001 87.8764 23.609 88.5742 23.609H92.0269C92.3169 23.6272 92.6069 23.509 92.7972 23.2819C92.9875 23.0638 93.0781 22.773 93.0781 22.4004V17.7388C93.0781 16.8574 92.7247 16.4212 92.0269 16.4212H88.4383C87.6952 16.5575 87.3145 16.9846 87.3145 17.7206L87.3236 22.3823Z" fill="#26FFF5"/>
<path d="M27.2969 7.84306V3.52673C27.2969 2.55442 27.7409 2.06372 28.629 2.06372H29.499C29.5806 2.06372 29.6621 2.07281 29.7437 2.08189C30.1515 2.1455 30.4415 2.29998 30.6137 2.56351C30.7768 2.29998 31.0668 2.13642 31.4837 2.08189C31.5652 2.07281 31.6468 2.06372 31.7283 2.06372H32.5983C33.4864 2.06372 33.9305 2.55442 33.9305 3.52673V7.84306H32.9699V3.60851C32.9699 3.24503 32.7796 3.0542 32.3899 3.0542H31.5471C31.2933 3.10873 31.1665 3.30864 31.1665 3.66303V7.84306H30.2149V3.60851C30.2059 3.59034 30.2059 3.57216 30.2059 3.55399C30.1424 3.22686 29.9431 3.06329 29.6078 3.06329H28.8465C28.8103 3.06329 28.774 3.06329 28.7378 3.07238C28.5747 3.09055 28.4659 3.1269 28.4025 3.19051C28.33 3.29047 28.2847 3.4086 28.2847 3.53582V7.84306H27.2969Z" fill="white"/>
<path d="M35.3889 6.42548V3.41768C35.3889 2.62712 35.8148 2.17276 36.6757 2.07281C36.7211 2.07281 36.7664 2.06372 36.8117 2.06372H38.6966C38.7782 2.06372 38.8507 2.07281 38.9232 2.08189C39.7932 2.20911 40.2282 2.65438 40.2282 3.41768V6.42548C40.2282 6.95253 39.9654 7.37053 39.4397 7.6704C39.2132 7.79762 38.9504 7.85214 38.6966 7.84306H36.8932C36.1592 7.84306 35.6789 7.49775 35.4523 6.79805C35.3708 6.56179 35.3526 6.44366 35.3889 6.42548ZM37.0473 6.88892H38.606C39.0591 6.88892 39.2857 6.64357 39.2857 6.15287V3.71756C39.2857 3.25412 39.0591 3.01786 38.606 3.01786H37.0473C36.5851 3.01786 36.3495 3.25412 36.3495 3.71756V6.11653C36.3495 6.63448 36.5761 6.88892 37.0473 6.88892Z" fill="white"/>
<path d="M41.7949 0.137207H42.7646V7.84299H41.7949V0.137207ZM42.8099 4.86245C42.819 5.04419 42.9005 5.22593 43.0365 5.34406L45.438 7.84299H46.7611L43.8883 4.84428L46.6432 2.05456H45.2839L43.0455 4.32632C42.8915 4.47171 42.8099 4.66254 42.8099 4.86245Z" fill="white"/>
<path d="M47.623 6.29814V5.60753C47.623 5.08957 47.7409 4.67157 47.9674 4.35352C48.2212 3.99004 48.6018 3.81739 49.1002 3.81739H51.4836V3.42665C51.4836 3.32669 51.4473 3.22674 51.3748 3.15404C51.3114 3.08134 51.2208 3.03591 51.1211 3.03591H47.623V2.0636H51.0395C51.7917 2.0636 52.2539 2.41799 52.417 3.13586C52.4261 3.22673 52.4351 3.30852 52.4351 3.39939V6.37084C52.4351 6.63436 52.3626 6.8888 52.2267 7.10689C51.9186 7.59759 51.5198 7.84293 51.0305 7.84293H49.1093C48.8102 7.83385 48.5112 7.73389 48.2755 7.54306C48.0218 7.37041 47.8315 7.12506 47.7137 6.84336C47.6502 6.67071 47.623 6.47988 47.623 6.29814ZM48.8374 6.80702C49.0096 6.87971 49.1999 6.90697 49.3811 6.89789H50.6861C51.2208 6.89789 51.4836 6.70706 51.4836 6.3254V5.38036C51.4836 5.01688 51.257 4.80787 50.8039 4.76244H49.2633C48.8102 4.81696 48.5746 5.01688 48.5746 5.38036V6.31632C48.5836 6.55258 48.6652 6.70706 48.8374 6.80702Z" fill="white"/>
</svg>
