<svg width="40" height="40" viewBox="0 0 40 40" fill="none"
  xmlns="http://www.w3.org/2000/svg">
  <path d="M26.7585 18.2369C27.1125 18.2397 27.4578 18.1271 27.7422 17.9162C28.0265 17.7052 28.2344 17.4074 28.3344 17.0678C28.4343 16.7281 28.4209 16.3652 28.2962 16.0338C28.1715 15.7025 27.9422 15.4208 27.6431 15.2313C27.344 15.0419 26.9914 14.9551 26.6385 14.9839C26.2856 15.0128 25.9518 15.1559 25.6875 15.3914C25.4232 15.627 25.2428 15.9422 25.1736 16.2895C25.1045 16.6367 25.1503 16.997 25.3042 17.3158L25.3264 17.3626L22.9877 19.7012L22.9402 19.6768C22.7277 19.567 22.4919 19.5099 22.2528 19.5103C21.8337 19.5093 21.4312 19.6738 21.1328 19.968L21.0952 20.0048L19.3329 19.1177L19.3418 19.0643C19.3541 19.0015 19.3613 18.9377 19.3633 18.8737C19.3648 18.6303 19.3113 18.3897 19.2069 18.1698C19.1024 17.95 18.9496 17.7566 18.7599 17.604C18.5702 17.4515 18.3486 17.3438 18.1114 17.2889C17.8743 17.234 17.6278 17.2335 17.3904 17.2872C17.153 17.3409 16.9308 17.4476 16.7404 17.5992C16.55 17.7509 16.3963 17.9435 16.2908 18.1629C16.1852 18.3822 16.1306 18.6226 16.131 18.866C16.1314 19.1094 16.1867 19.3496 16.2929 19.5686L16.3152 19.6154L13.9766 21.9541L13.9289 21.9296C13.7164 21.8199 13.4807 21.7628 13.2415 21.7632C12.8876 21.7604 12.5423 21.873 12.258 22.0839C11.9737 22.2948 11.7659 22.5926 11.6659 22.9322C11.566 23.2718 11.5794 23.6347 11.7041 23.966C11.8288 24.2973 12.058 24.579 12.3571 24.7684C12.6561 24.9578 13.0088 25.0446 13.3616 25.0157C13.7144 24.9869 14.0482 24.8438 14.3125 24.6083C14.5768 24.3728 14.7571 24.0576 14.8263 23.7105C14.8955 23.3633 14.8497 23.003 14.6958 22.6842L14.6736 22.6374L17.0121 20.2988L17.0598 20.3233C17.2723 20.433 17.508 20.4901 17.7472 20.4898C18.1662 20.4908 18.5687 20.3263 18.8672 20.0321L18.9047 19.9953L20.6671 20.8824L20.6582 20.9358C20.6458 20.9986 20.6386 21.0624 20.6366 21.1264C20.6351 21.3698 20.6886 21.6104 20.7931 21.8303C20.8975 22.0501 21.0503 22.2435 21.24 22.3961C21.4297 22.5486 21.6514 22.6563 21.8886 22.7112C22.1257 22.766 22.3722 22.7666 22.6096 22.7129C22.847 22.6591 23.0692 22.5525 23.2596 22.4008C23.45 22.2492 23.6037 22.0565 23.7092 21.8372C23.8147 21.6178 23.8693 21.3774 23.869 21.134C23.8686 20.8906 23.8132 20.6504 23.707 20.4314L23.6848 20.3846L26.0234 18.046L26.071 18.0704C26.2835 18.1802 26.5193 18.2373 26.7585 18.2369ZM26.7585 15.9841C26.8622 15.9837 26.9645 16.0087 27.0563 16.0569C27.1482 16.105 27.2269 16.1749 27.2857 16.2604C27.3444 16.3459 27.3813 16.4445 27.3932 16.5476C27.4052 16.6506 27.3917 16.755 27.3541 16.8517C27.3165 16.9484 27.2558 17.0344 27.1774 17.1023C27.099 17.1702 27.0051 17.2178 26.904 17.2412C26.803 17.2645 26.6977 17.2628 26.5975 17.2362C26.4972 17.2096 26.4049 17.1589 26.3287 17.0885H26.285L26.2816 17.0412C26.1782 16.9256 26.1213 16.7758 26.1216 16.6208C26.1218 16.452 26.189 16.2901 26.3084 16.1708C26.4278 16.0514 26.5896 15.9843 26.7585 15.9841ZM13.2415 24.0159C13.1378 24.0163 13.0356 23.9913 12.9437 23.9431C12.8519 23.895 12.7731 23.8251 12.7144 23.7396C12.6557 23.6541 12.6188 23.5555 12.6069 23.4525C12.595 23.3494 12.6084 23.245 12.646 23.1484C12.6836 23.0517 12.7443 22.9657 12.8227 22.8978C12.9011 22.8299 12.995 22.7823 13.096 22.7589C13.1971 22.7356 13.3023 22.7373 13.4026 22.7639C13.5028 22.7905 13.5951 22.8411 13.6713 22.9115H13.7149L13.7183 22.9589C13.8217 23.0744 13.8787 23.2242 13.8783 23.3792C13.8781 23.548 13.811 23.7099 13.6916 23.8292C13.5722 23.9486 13.4104 24.0157 13.2415 24.0159ZM17.7472 19.5103C17.5878 19.5098 17.4344 19.4495 17.3174 19.3414H17.2738L17.2704 19.294C17.167 19.1784 17.11 19.0287 17.1104 18.8736C17.1104 18.7477 17.1477 18.6246 17.2177 18.5199C17.2877 18.4152 17.3871 18.3336 17.5034 18.2854C17.6198 18.2372 17.7478 18.2246 17.8713 18.2491C17.9948 18.2737 18.1083 18.3343 18.1973 18.4234C18.2864 18.5124 18.347 18.6259 18.3716 18.7494C18.3961 18.8729 18.3835 19.0009 18.3353 19.1173C18.2871 19.2336 18.2055 19.333 18.1008 19.403C17.9961 19.473 17.873 19.5103 17.7471 19.5103H17.7472ZM22.2528 21.7631C22.149 21.7635 22.0468 21.7385 21.9549 21.6903C21.8631 21.6422 21.7843 21.5723 21.7256 21.4868C21.6669 21.4013 21.63 21.3027 21.6181 21.1997C21.6061 21.0966 21.6196 20.9922 21.6572 20.8956C21.6948 20.7989 21.7554 20.7129 21.8339 20.645C21.9123 20.5771 22.0061 20.5294 22.1072 20.5061C22.2083 20.4827 22.3135 20.4844 22.4138 20.511C22.514 20.5376 22.6063 20.5883 22.6825 20.6587H22.7262L22.7296 20.7061C22.833 20.8216 22.89 20.9713 22.8896 21.1264C22.8894 21.2952 22.8222 21.4571 22.7028 21.5765C22.5835 21.6958 22.4216 21.763 22.2528 21.7631Z" fill="#33303E"/>
  <path d="M31.2641 27.3656H27.2776V21.1263C27.2769 20.989 27.2219 20.8576 27.1247 20.7608C27.0274 20.664 26.8957 20.6096 26.7584 20.6096C26.6212 20.6096 26.4895 20.664 26.3922 20.7608C26.2949 20.8576 26.2399 20.989 26.2393 21.1263V27.3656H22.772V25.6319C22.7713 25.4947 22.7163 25.3632 22.619 25.2664C22.5218 25.1696 22.3901 25.1152 22.2528 25.1152C22.1155 25.1152 21.9839 25.1696 21.8866 25.2664C21.7893 25.3632 21.7343 25.4947 21.7337 25.6319V27.3656H18.2663V24.5056C18.2667 24.4372 18.2535 24.3694 18.2275 24.3061C18.2016 24.2429 18.1634 24.1854 18.1152 24.1369C18.0669 24.0884 18.0096 24.05 17.9464 24.0237C17.8833 23.9975 17.8156 23.984 17.7472 23.984C17.6788 23.984 17.6111 23.9975 17.548 24.0237C17.4848 24.05 17.4275 24.0884 17.3792 24.1369C17.331 24.1854 17.2928 24.2429 17.2669 24.3061C17.2409 24.3694 17.2277 24.4372 17.228 24.5056V27.3656H13.7607V26.7583C13.7601 26.6211 13.7051 26.4896 13.6078 26.3928C13.5105 26.296 13.3789 26.2416 13.2416 26.2416C13.1043 26.2416 12.9726 26.296 12.8754 26.3928C12.7781 26.4896 12.7231 26.6211 12.7224 26.7583V27.3656H9.25501V12.1151C9.25437 11.9778 9.19939 11.8464 9.10211 11.7496C9.00482 11.6527 8.87315 11.5984 8.7359 11.5984C8.59864 11.5984 8.46697 11.6527 8.36968 11.7496C8.2724 11.8464 8.21743 11.9778 8.21678 12.1151V27.8848C8.21694 28.0224 8.27168 28.1543 8.369 28.2517C8.46632 28.349 8.59827 28.4037 8.7359 28.4039H31.2641C31.3324 28.4042 31.4002 28.391 31.4635 28.3651C31.5267 28.3391 31.5843 28.3009 31.6327 28.2527C31.6812 28.2045 31.7196 28.1471 31.7459 28.084C31.7721 28.0208 31.7856 27.9531 31.7856 27.8848C31.7856 27.8164 31.7721 27.7487 31.7459 27.6855C31.7196 27.6224 31.6812 27.5651 31.6327 27.5168C31.5843 27.4686 31.5267 27.4304 31.4635 27.4045C31.4002 27.3785 31.3324 27.3653 31.2641 27.3656V27.3656Z" fill="#33303E"/>
</svg>
