<svg width="30" height="31" viewBox="0 0 30 31" fill="none" xmlns="http://www.w3.org/2000/svg">
<path d="M9.06627 23.2547L9.97127 23.7835C11.4974 24.6735 13.2333 25.1408 15 25.1372C16.9778 25.1372 18.9112 24.5507 20.5557 23.4519C22.2002 22.3531 23.4819 20.7913 24.2388 18.964C24.9957 17.1368 25.1937 15.1261 24.8079 13.1863C24.422 11.2465 23.4696 9.46466 22.0711 8.06614C20.6726 6.66761 18.8907 5.71521 16.9509 5.32935C15.0111 4.9435 13.0004 5.14154 11.1732 5.89841C9.34592 6.65529 7.78413 7.93701 6.68532 9.5815C5.58651 11.226 5.00002 13.1594 5.00002 15.1372C5.00002 16.9322 5.47127 18.6535 6.35502 20.1672L6.88252 21.0722L6.06627 24.0735L9.06627 23.2547ZM2.50502 27.6372L4.19502 21.4272C3.08144 19.5183 2.49639 17.3472 2.50002 15.1372C2.50002 8.23346 8.09627 2.63721 15 2.63721C21.9038 2.63721 27.5 8.23346 27.5 15.1372C27.5 22.041 21.9038 27.6372 15 27.6372C12.791 27.6408 10.6208 27.0562 8.71252 25.9435L2.50502 27.6372ZM10.4888 9.27221C10.6563 9.25971 10.825 9.25971 10.9925 9.26721C11.06 9.27221 11.1275 9.27971 11.195 9.28721C11.3938 9.30971 11.6125 9.43096 11.6863 9.59846C12.0588 10.4435 12.4213 11.2947 12.7713 12.1485C12.8488 12.3385 12.8025 12.5822 12.655 12.8197C12.5536 12.9803 12.4438 13.1355 12.3263 13.2847C12.185 13.466 11.8813 13.7985 11.8813 13.7985C11.8813 13.7985 11.7575 13.946 11.805 14.1297C11.8225 14.1997 11.88 14.301 11.9325 14.386L12.0063 14.5047C12.3263 15.0385 12.7563 15.5797 13.2813 16.0897C13.4313 16.2347 13.5775 16.3835 13.735 16.5222C14.32 17.0385 14.9825 17.4597 15.6975 17.7722L15.7038 17.7747C15.81 17.821 15.8638 17.846 16.0188 17.9122C16.0963 17.9447 16.1763 17.9735 16.2575 17.9947C16.3415 18.0161 16.4299 18.0121 16.5116 17.9831C16.5932 17.9542 16.6645 17.9017 16.7163 17.8322C17.6213 16.736 17.7038 16.6647 17.7113 16.6647V16.6672C17.7741 16.6086 17.8488 16.5641 17.9303 16.5367C18.0118 16.5093 18.0982 16.4997 18.1838 16.5085C18.2588 16.5135 18.335 16.5272 18.405 16.5585C19.0688 16.8622 20.155 17.336 20.155 17.336L20.8825 17.6622C21.005 17.721 21.1163 17.8597 21.12 17.9935C21.125 18.0772 21.1325 18.2122 21.1038 18.4597C21.0638 18.7835 20.9663 19.1722 20.8688 19.376C20.802 19.515 20.7134 19.6425 20.6063 19.7535C20.4801 19.8859 20.342 20.0064 20.1938 20.1135C20.1425 20.152 20.0904 20.1895 20.0375 20.226C19.882 20.3246 19.7223 20.4164 19.5588 20.501C19.2369 20.6719 18.8815 20.7701 18.5175 20.7885C18.2863 20.801 18.055 20.8185 17.8225 20.806C17.8125 20.806 17.1125 20.6972 17.1125 20.6972C15.3353 20.2298 13.6918 19.354 12.3125 18.1397C12.03 17.891 11.7688 17.6235 11.5013 17.3572C10.3888 16.251 9.54877 15.0572 9.03877 13.9297C8.77773 13.3763 8.63672 12.774 8.62502 12.1622C8.61986 11.4033 8.86795 10.6643 9.33002 10.0622C9.42127 9.94471 9.50752 9.82221 9.65627 9.68096C9.81502 9.53096 9.91502 9.45096 10.0238 9.39596C10.1684 9.3235 10.3261 9.28098 10.4875 9.27096L10.4888 9.27221Z" fill="white"/>
</svg>
